<?xml version="1.0" encoding="utf-8"?>
<!-- Generator: Adobe Illustrator 19.1.0, SVG Export Plug-In . SVG Version: 6.00 Build 0)  -->
<!DOCTYPE svg PUBLIC "-//W3C//DTD SVG 1.1//EN" "http://www.w3.org/Graphics/SVG/1.1/DTD/svg11.dtd">
<svg version="1.1" id="Layer_1" xmlns="http://www.w3.org/2000/svg" xmlns:xlink="http://www.w3.org/1999/xlink" x="0px" y="0px"
	 viewBox="-175 352 268 90" style="enable-background:new -175 352 268 90;" xml:space="preserve">
<style type="text/css">
	.st0{fill:#231F20;}
	.st1{fill:none;stroke:#231F20;stroke-width:0.5;}
</style>
<g>
	<path class="st0" d="M-153.1,377.1h-6.9v-17.6l-8.4,5.7l-3.1-4.7l9.8-6.4h8.5V377.1z"/>
	<path class="st0" d="M-120.2,377.1h-6.9v-17.6l-8.3,5.7l-3.1-4.7l9.8-6.4h8.5L-120.2,377.1L-120.2,377.1z"/>
	<path class="st0" d="M-101,370.6c0,1.7,1.8,1.8,3.2,1.8c1.2,0,2.3,0,3.5,0.1c1.3,0,2.6,0,3.9,0c2.6-0.1,3.5-0.7,3.5-3.1v-3
		c-1.2,1.8-3.3,1.9-5.2,2c-1.8,0-3.7,0.1-5.5,0.1c-5.9,0-9.5-0.7-9.5-7.4c0-5.9,3.2-6.8,8.3-6.9c2.6-0.1,5.1-0.1,7.7-0.1
		c1.7,0,3.4,0,5.1,0.3c2.7,0.4,4.6,1.5,5.3,4.3c0.4,1.9,0.4,3.8,0.4,5.8v1.8c0,7.8-0.7,10.7-9.5,10.9l-4.7,0.1c-2.3,0-4.6,0-6.9-0.2
		c-3.8-0.3-6.3-1.3-6.3-5.5c0-0.3,0-0.6,0-0.9H-101z M-96.5,363.7l3,0l3.1,0c1.7,0,3.7-0.1,3.7-2.3c0-1.9-0.8-2.5-2.6-2.6
		c-0.5,0-1-0.1-1.6-0.1l-3.6-0.1c-0.9,0-1.8,0-2.7,0c-1.7,0-3.3,0.3-3.5,2.3C-100.5,363.9-98.6,363.6-96.5,363.7z"/>
	<path class="st0" d="M-153.1,408.4h-6.9v-17.6l-8.4,5.7l-3.1-4.7l9.8-6.4h8.5L-153.1,408.4L-153.1,408.4z"/>
	<path class="st0" d="M-113.9,390.1h-19.7v4.7c1.2-1.4,2.8-1.8,4.6-1.8c0.7,0,1.4,0,2.1,0h2.1c2,0,4,0,6,0.2c4.7,0.5,5.8,2.6,5.8,7
		c0,5.5-1.7,8-7.7,8.3c-0.9,0-1.7,0-2.6,0h-2.6c-2.2,0-4.4,0-6.6-0.2c-5.3-0.4-8-1-8-7h6.4c0,2.5,2.5,2.3,4.3,2.4l3.3,0.1l2.9,0
		c2.6,0,3.9-0.3,3.9-3.1c0-2.4-0.9-3.1-3.2-3.2c-1.3-0.1-2.5-0.1-3.8-0.1h-3.8c-0.8,0-1.7,0-2.4,0.3c-0.6,0.2-0.9,0.6-1,1.2h-5.9
		l0.3-13.5h25.3L-113.9,390.1L-113.9,390.1z"/>
	<path class="st0" d="M-86.3,396.9l11.6,11.5h-9.6l-7.7-8.2l-7.8,8.2h-9.5l11.5-11.5l-10.8-11.5h9.4l7.3,8.2l7.4-8.2h9L-86.3,396.9z
		"/>
	<path class="st0" d="M-50.9,408.4h-6.9v-17.6l-8.3,5.7l-3.1-4.7l9.8-6.4h8.5V408.4z"/>
	<path class="st0" d="M-31.6,401.9c0,1.7,1.8,1.8,3.2,1.8c1.2,0,2.3,0,3.5,0.1c1.3,0,2.6,0,3.9,0c2.6-0.1,3.5-0.7,3.5-3.1v-3
		c-1.2,1.8-3.3,1.9-5.2,2c-1.8,0-3.7,0.1-5.5,0.1c-5.9,0-9.5-0.7-9.5-7.4c0-5.9,3.2-6.8,8.4-6.9c2.6-0.1,5.1-0.1,7.7-0.1
		c1.7,0,3.4,0,5.1,0.3c2.7,0.4,4.6,1.5,5.3,4.3c0.4,1.9,0.4,3.8,0.4,5.8v1.8c0,7.8-0.7,10.7-9.5,10.9l-4.7,0.1c-2.3,0-4.6,0-6.9-0.2
		c-3.8-0.3-6.3-1.3-6.3-5.5c0-0.3,0-0.6,0-0.9H-31.6z M-27.1,395.1l3,0l3.1,0c1.7,0,3.7-0.1,3.7-2.3c0-1.9-0.8-2.5-2.6-2.6
		c-0.5,0-1-0.1-1.6-0.1l-3.6-0.1c-0.9,0-1.8,0-2.7,0c-1.7,0-3.3,0.3-3.5,2.3C-31.2,395.2-29.3,395-27.1,395.1z"/>
	<g>
		<path class="st1" d="M-173,416.8h18.6c6.6,0,9.2,1.5,9.2,8.5c0,5.9-1.1,8.8-8.1,8.8h-1.8H-166v5.7h-7V416.8z M-155.8,428.5
			c2.4,0,3.6-0.4,3.6-3c0-2.7-1.2-3.1-3.7-3.1H-166v6.1H-155.8z"/>
		<path class="st1" d="M-131.9,435.6l-2.3,4.2h-7.8l12.8-23h9.5l12.6,23h-7.7l-2.2-4.2H-131.9z M-124.6,421.7l-4.9,9.1h9.9
			L-124.6,421.7z"/>
		<path class="st1" d="M-96,439.8h-7v-23h7V439.8z"/>
		<path class="st1" d="M-58.4,439.8h-11.1l-13.9-17.3v17.3h-6.6v-23h11.1L-65,434v-17.2h6.6L-58.4,439.8L-58.4,439.8z"/>
		<path class="st1" d="M-37.3,439.8h-7v-17.2h-10.3v-5.8H-27v5.8h-10.2V439.8z"/>
		<path class="st1" d="M-16.1,439.8h-7v-23h7V439.8z"/>
		<path class="st1" d="M21.5,439.8H10.4l-13.9-17.3v17.3h-6.6v-23H1L14.9,434v-17.2h6.6L21.5,439.8L21.5,439.8z"/>
		<path class="st1" d="M41.3,426.8h15.8c0,1.6,0,3.2,0,4.8c0,5.1-1.1,8.3-7.2,8.3c-1.2,0-2.5,0-3.7,0l-4.2,0l-3.6,0
			c-6.7,0-11-0.7-11.4-8.5c0-1-0.1-1.9-0.1-2.9c0-8,0.6-11.7,9.5-11.9l5.2-0.1c0.7,0,1.3,0,1.9,0c1.6,0,3.1,0.1,4.7,0.1
			c5.6,0.2,8.7,1.3,8.7,7.6v0.4h-6.9c-0.1-0.9-0.2-1.9-1.2-2.2c-0.9-0.3-2-0.3-3-0.3c-2.7,0-5.4,0-8.1,0c-3.6,0-3.8,2.1-3.8,5.3v2.1
			c0,2.8,0.4,4.5,3.5,5c0.8,0.1,1.7,0.1,2.6,0.1c2.1,0,4.2,0,6.2,0s3.8-0.4,3.8-2.8c0-0.2,0-0.4,0-0.7h-8.9L41.3,426.8L41.3,426.8z"
			/>
		<path class="st1" d="M69.2,432.4c0,0.1,0,0.2,0,0.4c0,2.1,2,2.1,3.6,2.1c1.1,0,2.2,0,3.3,0c1.6,0,3.1,0,4.7-0.1
			c1.6-0.1,3.1,0,3.1-2c0-1.9-1.7-2-3.2-2h-1.1c-3.8,0-7.7,0-11.5-0.2c-4.5-0.3-5.9-2.3-5.9-6.6c0-3.4,0.6-5.8,4.3-6.7
			c2.4-0.7,7.7-0.7,10.3-0.7l4.9,0.1c2.8,0,6,0.1,7.7,2.8c0.8,1.3,0.7,2.9,0.8,4.4h-6.9c-0.1-1.7-1.1-2.1-2.7-2.2
			c-1.1,0-2.3,0-3.4,0c-1.8,0-3.6,0.1-5.3,0.2c-1.2,0.1-2.6,0.3-2.6,1.7c0,2.2,2.4,2,4,2.1l4.7,0.1c1.6,0,3.1,0,4.6,0
			c5.3,0,8.5,1,8.5,7c0,5.6-2.5,6.7-7.8,7.1c-3,0.2-6,0.2-9,0.2c-1.6,0-3.1,0-4.7-0.1c-4.4-0.3-7.2-0.8-7.2-6.1v-1.4
			C62.3,432.4,69.2,432.4,69.2,432.4z"/>
	</g>
</g>
</svg>
